<?xml version="1.0" encoding="utf-8"?>
<!-- Generator: Adobe Illustrator 19.2.1, SVG Export Plug-In . SVG Version: 6.00 Build 0)  -->
<svg version="1.1" id="Layer_1" xmlns="http://www.w3.org/2000/svg" xmlns:xlink="http://www.w3.org/1999/xlink" x="0px" y="0px"
	 viewBox="0 0 120 120" enable-background="new 0 0 120 120" xml:space="preserve">
<path fill="#666666" d="M64,96.0006V33.6563l21.1719,21.1719c1.5615,1.5615,4.0942,1.5615,5.6562,0
	c1.5625-1.5625,1.5625-4.0947,0-5.6572l-28-28c-1.5615-1.5615-4.0947-1.5615-5.6562,0l-28,28C28.3906,49.9522,28,50.9757,28,52.0001
	c0,1.0234,0.3906,2.0469,1.1719,2.8281c1.5615,1.5615,4.0947,1.5615,5.6562,0L56,33.6563v62.3443c0,2.2085,1.791,3.9995,4,3.9995
	S64,98.2091,64,96.0006z"/>
</svg>
